<?xml version="1.0" encoding="UTF-8" standalone="no"?>
<!DOCTYPE svg PUBLIC "-//W3C//DTD SVG 1.1//EN" "http://www.w3.org/Graphics/SVG/1.1/DTD/svg11.dtd">
<svg width="100%" height="100%" viewBox="0 0 3525 1651" version="1.1" xmlns="http://www.w3.org/2000/svg" xmlns:xlink="http://www.w3.org/1999/xlink" xml:space="preserve" xmlns:serif="http://www.serif.com/" style="fill-rule:evenodd;clip-rule:evenodd;stroke-linecap:round;stroke-linejoin:round;stroke-miterlimit:1.5;">
    <g transform="matrix(1,0,0,1,8.33525,-837.711)">
        <path d="M0,980C0,980 0.561,865.598 0,847.087C-0.472,831.505 86.112,995.002 186.035,1040.38C318.714,1100.64 418.377,1018.23 659.918,879.989C826.037,784.916 994.06,1031.87 1182,1032.63C1308.47,1033.14 1482.51,915.162 1544.73,888.157C1691.07,824.64 1796.28,960.785 1887.94,1047.63C1983.45,1138.13 2176.5,1139.63 2340.85,958.492C2419.05,872.297 2527.45,738.242 2847.6,1085.17C3095.45,1353.76 3507.97,925.23 3507.87,970.157C3507.39,1202.11 3507.87,2480.32 3507.87,2480.32L0,2480.32L0,980Z" style="fill:rgb(217,121,129);stroke:rgb(217,121,129);stroke-width:16.67px;"/>
    </g>
</svg>
