<svg width="1514" height="2396" viewBox="0 0 1514 2396" fill="none" xmlns="http://www.w3.org/2000/svg">
<path d="M204.2 35.9514C155.528 -3.84653 36.1239 52.5339 0 85.6989V2396H1514V677.228C1495.46 647.691 1473.01 550.734 1401.52 391.957C1312.16 193.485 1220.42 285.207 1200.94 332.882C1184.37 373.414 1155.22 514.304 1044 514.304C932.776 514.304 928.693 432.769 888.207 332.882C841.167 216.829 788.127 116.498 708.498 404.276C678.008 514.467 593.006 330.163 584.039 113.036C576.814 -61.9089 513.196 -3.43158 502.698 85.6988C487.013 218.877 497.472 259.355 461.348 259.355C414.363 259.355 414.363 185.292 414.363 113.365V113.036C414.363 56.034 371.987 52.0158 352.499 127.673C345.255 155.794 332.852 193.831 314.474 223.541C265.991 272.77 265.041 85.6989 204.2 35.9514Z" fill="#A5B586"/>
</svg>
