<?xml version="1.0" encoding="UTF-8" standalone="no"?>
<!DOCTYPE svg PUBLIC "-//W3C//DTD SVG 1.1//EN" "http://www.w3.org/Graphics/SVG/1.1/DTD/svg11.dtd">
<svg width="100%" height="100%" viewBox="0 0 1524 1440" version="1.1" xmlns="http://www.w3.org/2000/svg" xmlns:xlink="http://www.w3.org/1999/xlink" xml:space="preserve" xmlns:serif="http://www.serif.com/" style="fill-rule:evenodd;clip-rule:evenodd;stroke-linecap:round;stroke-linejoin:round;stroke-miterlimit:1.5;">
    <g transform="matrix(1,0,0,1,-1029.2,-485.385)">
        <g transform="matrix(6.08837,0,0,5.10646,-9764.17,-5081.46)">
            <g id="Calque2">
                <path d="M1823.09,1290.24C1823.09,1290.24 1794.67,1321.68 1829.37,1350.66C1829.37,1350.66 1862.89,1373.39 1888.93,1346.02C1888.93,1346.02 1918.94,1391.74 1959.1,1361.84C1959.1,1361.84 1977.75,1342.58 1964.12,1308.89C1964.12,1308.89 2013.73,1315.55 2021.28,1279.78C2028.82,1244.01 2008.71,1221.94 1987.09,1217.56C1987.09,1217.56 2020.83,1177.1 2003.97,1152.11C1987.11,1127.12 1952.67,1130.26 1940.09,1143.59C1940.09,1143.59 1951.74,1098.78 1902.94,1090.28C1902.94,1090.28 1851.35,1087.58 1854.58,1138.17C1854.58,1138.17 1810.73,1110.81 1788.75,1141.34C1788.75,1141.34 1759.84,1174.09 1806.27,1207.07C1806.27,1207.07 1767.94,1220.71 1773.4,1259.59C1773.4,1259.59 1783.05,1289.35 1823.09,1290.24Z" style="fill:rgb(217,121,129);stroke:rgb(165,181,134);stroke-width:0.18px;"/>
            </g>
        </g>
        <g id="Calque1">
            <g transform="matrix(1.80512,0,0,1.73339,-1172.86,-517.441)">
                <path d="M1557.48,1032.42C1557.48,1032.42 1487.44,1033.95 1472.25,975.472C1472.25,975.472 1461.54,885.124 1561.2,893.476C1561.2,893.476 1611.94,898.423 1675.2,940.951C1675.2,940.951 1745.44,995.938 1786.33,992.565C1827.22,989.193 1867.84,977.3 1892.13,928.504C1892.13,928.504 1914.34,870.246 1874.67,826.034C1835,781.821 1787.33,760.774 1745.14,784.546C1702.95,808.319 1703.58,846.423 1732.46,865.941C1732.46,865.941 1743.26,824.57 1776.31,817.05C1776.31,817.05 1812.85,804.137 1846.87,830.46C1846.87,830.46 1887.2,858.463 1834.45,894.169C1834.45,894.169 1758.35,919.032 1677.57,879.83C1677.57,879.83 1565.86,837.336 1492.88,872.349C1492.88,872.349 1410.76,910.046 1398.52,966.307C1398.52,966.307 1380.33,1056.34 1447.48,1062.21C1447.48,1062.21 1488.38,1068.72 1557.48,1032.42Z" style="fill:rgb(255,247,231);stroke:rgb(224,208,208);stroke-width:0.57px;"/>
            </g>
            <g transform="matrix(1.80512,0,0,1.73339,-1172.86,-517.441)">
                <path d="M1551.74,1266.19C1551.74,1266.19 1596.23,1131.12 1560.31,983.999C1560.31,983.999 1632.06,986.243 1655.2,961.205C1655.2,961.205 1655.51,1226.43 1667.56,1266.46L1551.74,1266.19Z" style="fill:rgb(255,247,231);stroke:rgb(224,208,208);stroke-width:0.57px;"/>
            </g>
        </g>
    </g>
</svg>
