<?xml version="1.0" encoding="UTF-8" standalone="no"?>
<!DOCTYPE svg PUBLIC "-//W3C//DTD SVG 1.1//EN" "http://www.w3.org/Graphics/SVG/1.1/DTD/svg11.dtd">
<svg width="100%" height="100%" viewBox="0 0 3508 242" version="1.1" xmlns="http://www.w3.org/2000/svg" xmlns:xlink="http://www.w3.org/1999/xlink" xml:space="preserve" xmlns:serif="http://www.serif.com/" style="fill-rule:evenodd;clip-rule:evenodd;stroke-linejoin:round;stroke-miterlimit:2;">
    <g transform="matrix(1,0,0,1,0.00192142,0)">
        <path d="M0,202C0,202 66.397,160.179 152,162C237.603,163.821 256.555,280.017 348,188C439.445,95.983 519.992,170.065 643,198C713.646,214.043 801.149,185.322 866,143C938.423,95.737 982.02,57.623 1188.64,160C1395.27,262.377 1488.22,168.171 1568,117C1568,117 1658.17,54.329 1782,157C1931.88,281.263 2037.76,248.854 2146,187C2266.51,118.132 2347.18,65.422 2450,101C2496.62,117.131 2550.51,208.259 2602.02,218.647C2664.12,231.17 2633.76,116.804 2759,102C2855.8,90.557 2904.56,187.356 2998,197C3100.4,207.569 3150.74,117.77 3254,120C3350.92,122.093 3377.18,175.209 3417.53,192.039C3471.99,214.763 3507.87,187 3507.87,187L3507.87,0L-0.002,0L0,202Z" style="fill:rgb(217,121,129);"/>
    </g>
</svg>
